REM DIRINDEX 1\2,1\3
REM DIRNAME cjc052,folder01,folder02
TITLE ""
FILE "Disk3Track57.mp3" MP3
  TRACK 01 AUDIO
    TITLE "2:cjc052_1526"
    INDEX 01 00:00:00
  TRACK 02 AUDIO
    TITLE "2:cjc052_1527"
    INDEX 01 00:04:27
  TRACK 03 AUDIO
    TITLE "2:cjc052_1528"
    INDEX 01 00:12:30
  TRACK 04 AUDIO
    TITLE "2:cjc052_1529"
    INDEX 01 00:20:02
  TRACK 05 AUDIO
    TITLE "2:cjc052_1530"
    INDEX 01 00:29:17
  TRACK 06 AUDIO
    TITLE "0:"
    INDEX 01 00:44:56
